<?xml version="1.0" encoding="UTF-8" standalone="no"?>
<svg
   height="64"
   viewBox="0 0 64 64"
   width="64"
   version="1.1"
   id="svg6"
   sodipodi:docname="picture.svg"
   inkscape:version="1.1.2 (0a00cf5339, 2022-02-04)"
   xmlns:inkscape="http://www.inkscape.org/namespaces/inkscape"
   xmlns:sodipodi="http://sodipodi.sourceforge.net/DTD/sodipodi-0.dtd"
   xmlns="http://www.w3.org/2000/svg"
   xmlns:svg="http://www.w3.org/2000/svg">
  <defs
     id="defs10" />
  <sodipodi:namedview
     id="namedview8"
     pagecolor="#ffffff"
     bordercolor="#999999"
     borderopacity="1"
     inkscape:pageshadow="0"
     inkscape:pageopacity="0"
     inkscape:pagecheckerboard="0"
     showgrid="false"
     inkscape:snap-page="true"
     inkscape:zoom="7.3362628"
     inkscape:cx="10.427653"
     inkscape:cy="16.288948"
     inkscape:window-width="1920"
     inkscape:window-height="1012"
     inkscape:window-x="0"
     inkscape:window-y="32"
     inkscape:window-maximized="1"
     inkscape:current-layer="svg6" />
  <path
     d="m20.08 62c-3.24 0-4.88-.89-4.88-2.64 0-.3 0-.75 2.49-9.38-3.37-.17-3.66-.46-4.12-.91a2.33 2.33 0 0 1 -.57-1.14c-3.6 0-4.72-.41-5.43-1.12-1.35-1.35-2-2.82-1.87-6.67a43.21 43.21 0 0 1 .81-6c.31-1.69.63-3.44.82-5.39.12-1.26.23-2.79.34-4.34.52-7.3.74-8.63 1.57-9.51a11.31 11.31 0 0 1 6.76-2.67c.83 0 1.95-.05 2.94-.05h3.56l.09-1c.61-7 .66-7.63 1.83-8.28a15 15 0 0 1 4.75-.85 3 3 0 0 1 2.83 1.28c.42.74.45 1.55.29 6.66 0 .68 0 1.48-.06 2.16h2c.2-2.89.75-8.14 2.15-9.1.25-.17.92-.63 3.14-.63 3.22 0 5 .88 5.18 2.61.12.93 0 4.36-.07 5-.06 1.12-.11 2-.16 2.67l.56.05c.09 0 8.62.85 9.93 1.31h.15c2.55.68 3.52 2.72 3.23 6.82-.33 4.61-1 16.86-1.12 20.23v1.8c0 1.89 0 3.52-2.22 4.81a7.35 7.35 0 0 1 -3.78.91c-.53 0-1 0-1.41-.07h-.37-.34a3.41 3.41 0 0 1 -2.33 2.07l-.49.12c1.06 7.75.93 8.16.77 8.63a2.47 2.47 0 0 1 -2.47 1.72s0 0 0 0a15.34 15.34 0 0 1 -2.87.32 2.51 2.51 0 0 1 -2.5-1.34c-.12-.28-.21-.51-1.66-10.11l-.87-.11c0 2.19-.3 2.88-1.18 3.38-.23.13-.77.44-3.14.44-1.17 0-2.93 0-3.54-1.52a9.54 9.54 0 0 1 -.32-2.82l-1.31.12c-1.08 2.82-3.08 8.07-3.37 8.69-.07.15-.16.35-.25.57-.57 1.36-1.06 2.53-2.15 3a3.55 3.55 0 0 1 -1.34.28z"
     fill="#fff"
     id="path2" />
  <path
     d="m54.28 16c-.83-.29-7.71-1-9.46-1.21s-7-.37-7.33-.5.71-8.12 1-8.33a6.84 6.84 0 0 1 2.75.12c.21.17-.21 7.67-.13 7.79s.88.42 1.13.21.58-7.79.46-8.79-4.54-1-5.21-.58-1.38 9.21-1.38 9.37a45.67 45.67 0 0 1 -5.83 0c-.29-.08.33-9.08 0-9.75s-4.46.13-4.83.33-1 9.09-1.09 9.38-5.75.08-8.21.21a9.48 9.48 0 0 0 -5.45 2c-.67.71-1 8.29-1.38 12.66s-1.5 7.65-1.66 11.32.54 4.41 1.34 5.16 6 .5 6 .5-.25 1.42 0 1.71 5.33.42 5.33.42-3.13 10.75-3.13 11.29 3.08.75 3.5.58 1-1.83 1.33-2.54 3.75-9.71 3.75-9.71 4.46-.41 4.58-.41.17 3.83.34 4.25 3.54.25 3.83.08.08-3.92.08-3.92l4.71.59s1.68 10.83 1.75 11.12 2.54 0 3-.12.92.08 1.09-.42-1.17-10-1.17-10a3.55 3.55 0 0 0 2.25-.08c1.5-.42 1.08-2.25 1.08-2.25l2.17.12c.87 0 2.87.38 4.46-.54s1.12-1.62 1.25-5 .8-15.5 1.12-20.21-1.21-4.54-2.04-4.85zm-27.61-10.55c.06-.1 2.12-.63 2.43-.19s.35 8.69.1 8.69l-3.6.05c0-.21 1-8.46 1.07-8.55zm-5.67 51.25a15.46 15.46 0 0 1 -.88 2c-.09 0-1.25-.13-1.25-.29s2.92-10.24 3.05-10.41 1.87-.22 2 0a76.43 76.43 0 0 1 -2.92 8.7zm12.15-6.28c-.21 0-1.37.21-1.37-.07s-.09-2.72-.06-2.87 1.5.19 1.5.19.13 2.71-.09 2.75zm10.55 7.65a9 9 0 0 1 -1.85.06c0-.09-1.43-9.78-1.43-9.78a11.89 11.89 0 0 1 2.28.44c.03.21 1.12 9.21 1 9.28zm2-10.44c-.35.07-7.1-1.28-11.72-1.46a113.06 113.06 0 0 0 -11.69.34c-4.84.22-5.65.69-5.81.06a9 9 0 0 1 .28-3.19c.28-.37 1.16-.28 6-.09s11 .72 14.66 1 8.31.37 8.43.59.22 2.69-.12 2.75zm7.94-13.84a24.39 24.39 0 0 0 -.22 2.47s-1.1.06-1.1.56.68 3.38.68 3.47-.19 3.28-.19 3.19-.68-5.35-1-5.41-1 .5-.94.94 1.54 5.44 1.38 5.62-.25.37-.25.19-1.22-4.28-1.53-4.37-1.07.4-.94.59 1.47 3.72 1.06 3.69-1.22 0-1.25-.19a32.58 32.58 0 0 0 -1.06-3.66c-.16 0-.88.1-.85.32s1 3.37.88 3.43-.75.32-.78-.06a27.72 27.72 0 0 0 -1-4.09c-.19-.1-.94-.06-.88.12a15 15 0 0 1 .35 2.82h-.66s-.44-2.79-.78-3-.91.22-.84.47a15.47 15.47 0 0 1 .37 2.65c-.12 0-.84.06-.84-.06s-.55-2.48-.96-2.48-.94.62-.94.62.91 1.94.6 1.91-.78 0-.78 0-.44-1.78-.75-1.78-.75.18-.75.37.28 1.31.12 1.35-3.56-.47-10.37-.87-11.16-.6-12.25-.6-1.6.44-1.72.78a7.82 7.82 0 0 0 -.22 1.28 10 10 0 0 1 -3.72.38c-1.5-.28-1.78-1.25-2.06-3.81s1.62-9 2-13.22.87-9.82 1.31-10.28.75-1.13 5.24-1.13 9.31 0 15.09 0a88.57 88.57 0 0 1 12.1.81c4.56.47 9 .28 9 2.16s-.31 13.03-.52 14.82zm-39.22-11.12c.34-.1.62-3.69.68-4s2.82-.25 2.91-.25a1.7 1.7 0 0 0 .12-1.13c-.13-.29-3.13-.29-3.84.09s-.84 5.16-.84 5.16c.03.16.62.22.97.13zm15.81-1.38a4.15 4.15 0 0 0 3.77-.75s.78.16 1.75.28a2.23 2.23 0 0 0 1.69-.56 11.36 11.36 0 0 0 2.06.91 8.58 8.58 0 0 0 4.5-.17c.56-.28.19-.69.09-.81s-2.3.13-4.09-.19-2-1.18-2.12-1.4-.68-.25-1.06.13.16.75.19.87-.75.35-1.56.1a6.72 6.72 0 0 1 -2.25-1.35c-.13-.22-1.5.1-1.66.25s1.75 1.47 1.75 1.47-2.12.72-3.22.22a6.18 6.18 0 0 1 -2-1.78c-.15-.16-.75.19-.81.31a4.14 4.14 0 0 0 2.97 2.47zm17.37-.66c-.37-.06-1.09.16-2.25 1.54s-4.62 6.4-4.81 6.68-1.5-1.93-2.75-3.22-3.28-3.28-3.94-3.28-5.25 2.57-5.25 2.57a4 4 0 0 1 -.81-.75c-.53-.6-4-5-5.5-5.47s-2.69 3.06-3.66 5.12-4.46 7.78-4.46 7.78c.34.72 1.09.28 1.59-.37s5.84-11.03 6.34-11.23 5.9 6.1 6.5 6.35 4.94-2.56 5.22-2.84 2.18 2.12 2.38 2.49-1.47 0-2.28.15-1.82 1.19-2.1 1.38-1.28-.19-2.31-.25a17.27 17.27 0 0 0 -2.59.47c-.63 0-1.38-1.38-2.38-1.69s-1.59 1-2.28 1.34-1.28-.81-2.09-.93-1.91.78-2.38 1.65.41.94.66.88.87-1.22 1.53-1.38 1.5.91 2.69 1 1.33-1.24 1.53-1.39 1.72 1.28 2.5 1.69 1.68-.32 3-.38 1.78.31 2.81.13 1.31-1.35 2.34-1.47 1.44.87 2 .78.29-.91.41-.94 2.74 3.53 3.28 3.56 1.28-1.6 1.28-1.6a17.17 17.17 0 0 1 1.91-.75c.9-.28.87.34 1.28.69s1.19.12 1.59-.13 2 .19 2 .19.63 4 .63 4.4.87.38 1.28.25-.16-1.68-1.06-7.37-1.45-5.58-1.85-5.65zm.75 6.85c-.4.12-1.59 0-2 .12s-.53.28-.68.22-.5-.56-1-.62a9.9 9.9 0 0 1 -1.25-.28c0-.1 1.84-2.6 2.31-3.32s1.27-1.5 1.37-1.37 1.66 5.12 1.25 5.25zm-.35 10.52a7.56 7.56 0 0 0 -2.94-1.28s0-1.72.06-1.91a2.94 2.94 0 0 1 .54-.69 6.88 6.88 0 0 0 .81.1c.25 0 .25 0 .5-.38s-.1-1-1-1.31a4.09 4.09 0 0 0 -2.59.44.84.84 0 0 0 -.54 1.19 1.19 1.19 0 0 0 .94.59v1.75s-1.78-.19-3.12-.22a6.66 6.66 0 0 0 -2.85.81 8.78 8.78 0 0 0 -1.5-1.75c-.84-.72-1.28-1.09-4.15-1.75a12.12 12.12 0 0 0 -6.22.72 6.12 6.12 0 0 0 -1.28-.59 16.63 16.63 0 0 0 -2.47-.53l.15-1.35.72-.4c.72-.41.69-.66.35-1s-1.1-.16-1.1-.16a1.39 1.39 0 0 0 -1.25-.47 1 1 0 0 0 -.86 1.19c.09.53.84.62.84.62l-.04 1.67a23.59 23.59 0 0 0 -3.44.81 9.22 9.22 0 0 0 -3.44 2.13 2 2 0 0 0 -.78 1.31c0 .22.66.38.91.38a12.38 12.38 0 0 1 3.94-2.66 9.14 9.14 0 0 1 6.44-.26 9.55 9.55 0 0 1 3.37 2.57c.34.41 1-.15 1.22-.44s-2-1.87-2-1.87 1.4-.78 4.65-.44a8 8 0 0 1 5.13 2.81s-.25.29-.35.32.19.53.53.65.6-.25 2.25-.78 1.72-.31 4.5-.12a7.68 7.68 0 0 1 4.58 2.3c.09 0 .31 0 .56-.44s.16-.56-1.07-1.56z"
     fill="#1d1d1b"
     id="path4" />
  <path
     id="rect849"
     style="color:#000000;fill:#ff0000;stroke-linecap:square;stroke-linejoin:round;-inkscape-stroke:none;opacity:0.978904;fill-opacity:0.37124902"
     d="M 18.445312 0.95507812 C 14.084974 0.95507812 10.113015 2.5482044 7.0546875 5.1738281 A 0.50005 0.50005 0 0 0 7.0449219 5.1777344 C 6.9558679 5.2542537 6.8747767 5.3397881 6.7871094 5.4179688 C 6.5126594 5.6636275 6.2368706 5.907543 5.9785156 6.1699219 C 5.7502433 6.3998238 5.5394698 6.6475358 5.3242188 6.890625 C 5.1913228 7.0414998 5.0476149 7.182443 4.9199219 7.3378906 C 4.9178592 7.3404019 4.9161237 7.3431905 4.9140625 7.3457031 A 0.50005 0.50005 0 0 0 4.9140625 7.3476562 C 2.4394157 10.36415 0.95507812 14.22629 0.95507812 18.445312 L 0.95507812 19.640625 L 0.95507812 23.816406 L 0.95507812 39.640625 L 0.95507812 43.816406 L 0.95507812 45.554688 C 0.95507812 55.236114 8.7638869 63.044922 18.445312 63.044922 L 20.181641 63.044922 L 24.357422 63.044922 L 40.181641 63.044922 L 44.357422 63.044922 L 45.554688 63.044922 C 49.771178 63.044922 53.630785 61.561815 56.646484 59.089844 A 0.50005 0.50005 0 0 0 56.654297 59.087891 C 56.661092 59.082317 56.667043 59.075897 56.673828 59.070312 C 56.802092 58.964763 56.917817 58.845431 57.042969 58.736328 C 57.305279 58.50619 57.569649 58.278453 57.816406 58.033203 C 58.113255 57.741506 58.390577 57.431346 58.666016 57.119141 C 58.715536 57.062818 58.771455 57.011931 58.820312 56.955078 A 0.50005 0.50005 0 0 0 58.826172 56.943359 C 61.451233 53.885177 63.044922 49.914506 63.044922 45.554688 L 63.044922 44.908203 L 63.044922 40.732422 L 63.044922 24.908203 L 63.044922 20.732422 L 63.044922 18.445312 C 63.044922 8.7638869 55.236114 0.95507812 45.554688 0.95507812 L 43.269531 0.95507812 L 39.09375 0.95507812 L 23.269531 0.95507812 L 19.09375 0.95507812 L 18.445312 0.95507812 z M 18.445312 1.9550781 L 18.886719 1.9550781 L 62.044922 45.115234 L 62.044922 45.554688 C 62.044922 49.481434 60.683733 53.070406 58.414062 55.894531 L 8.1074219 5.5859375 C 10.931362 3.3168575 14.519132 1.9550781 18.445312 1.9550781 z M 20.300781 1.9550781 L 23.0625 1.9550781 L 62.044922 40.939453 L 62.044922 43.701172 L 20.300781 1.9550781 z M 24.476562 1.9550781 L 38.886719 1.9550781 L 62.044922 25.115234 L 62.044922 39.525391 L 24.476562 1.9550781 z M 40.300781 1.9550781 L 43.0625 1.9550781 L 62.044922 20.939453 L 62.044922 23.701172 L 40.300781 1.9550781 z M 44.476562 1.9550781 L 45.554688 1.9550781 C 54.699411 1.9550781 62.044922 9.3005892 62.044922 18.445312 L 62.044922 19.525391 L 44.476562 1.9550781 z M 7.3730469 6.265625 L 57.732422 56.626953 C 57.294127 57.112042 56.831573 57.570676 56.341797 57.998047 L 6.0039062 7.6582031 C 6.4312533 7.167727 6.8886359 6.7039537 7.3730469 6.265625 z M 5.3515625 8.4199219 L 55.578125 58.648438 C 52.803022 60.771454 49.339216 62.044922 45.554688 62.044922 L 44.564453 62.044922 L 1.9550781 19.433594 L 1.9550781 18.445312 C 1.9550781 14.660219 3.2279709 11.19523 5.3515625 8.4199219 z M 1.9550781 20.847656 L 43.150391 62.044922 L 40.388672 62.044922 L 1.9550781 23.609375 L 1.9550781 20.847656 z M 1.9550781 25.023438 L 38.974609 62.044922 L 24.564453 62.044922 L 1.9550781 39.433594 L 1.9550781 25.023438 z M 1.9550781 40.847656 L 23.150391 62.044922 L 20.388672 62.044922 L 1.9550781 43.609375 L 1.9550781 40.847656 z M 1.9550781 45.023438 L 18.974609 62.044922 L 18.445312 62.044922 C 9.3005892 62.044922 1.9550781 54.699412 1.9550781 45.554688 L 1.9550781 45.023438 z " />
</svg>
